HIERARCHY
ROOT Pelvis
{
	OFFSET 0.000000 0.000000 0.000000
	CHANNELS 6 Xposition Yposition Zposition Xrotation Yrotation Zrotation
	JOINT LeftUpLeg_virtual
	{
		OFFSET 0.000000 0.000000 0.000000
		CHANNELS 3 Xrotation Yrotation Zrotation
		JOINT LeftUpLeg
		{
			OFFSET 18.735201 -5.666702 -4.541200
			CHANNELS 3 Xrotation Yrotation Zrotation
			JOINT LeftLeg
			{
				OFFSET -0.021200 -31.938179 0.493100
				CHANNELS 3 Xrotation Yrotation Zrotation
				JOINT LeftFoot
				{
					OFFSET 0.021200 -31.938179 -4.336299
					CHANNELS 3 Xrotation Yrotation Zrotation
					JOINT LeftToeBase
					{
						OFFSET 0.943001 -26.722000 15.023500
						CHANNELS 3 Xrotation Yrotation Zrotation
						End Site
						{
							OFFSET 0 0 0
						}
					}
				}
			}
		}
	}
	JOINT RightUpLeg_virtual
	{
		OFFSET 0.000000 0.000000 0.000000
		CHANNELS 3 Xrotation Yrotation Zrotation
		JOINT RightUpLeg
		{
			OFFSET -18.735201 -5.666702 -4.541200
			CHANNELS 3 Xrotation Yrotation Zrotation
			JOINT RightLeg
			{
				OFFSET 0.018946 -31.938133 0.493100
				CHANNELS 3 Xrotation Yrotation Zrotation
				JOINT RightFoot
				{
					OFFSET -0.018946 -31.938126 -4.336299
					CHANNELS 3 Xrotation Yrotation Zrotation
					JOINT RightToeBase
					{
						OFFSET -0.943001 -26.722004 15.023500
						CHANNELS 3 Xrotation Yrotation Zrotation
						End Site
						{
							OFFSET 0 0 0
						}
					}
				}
			}
		}
	}
	JOINT Hips_virtual
	{
		OFFSET 0.000000 0.000000 0.000000
		CHANNELS 3 Xrotation Yrotation Zrotation
		JOINT Hips
		{
			OFFSET -0.000000 -0.000000 -0.000000
			CHANNELS 3 Xrotation Yrotation Zrotation
			JOINT Spine
			{
				OFFSET 0.000000 10.199997 -0.299500
				CHANNELS 3 Xrotation Yrotation Zrotation
				JOINT Spine1
				{
					OFFSET 0.000000 11.900002 -1.516600
					CHANNELS 3 Xrotation Yrotation Zrotation
					JOINT Spine2
					{
						OFFSET 0.000000 13.600006 -2.842500
						CHANNELS 3 Xrotation Yrotation Zrotation
						JOINT Neck_virtual
						{
							OFFSET 0.000000 0.000000 0.000000
							CHANNELS 3 Xrotation Yrotation Zrotation
							JOINT Neck
							{
								OFFSET 0.000000 9.624100 -2.890100
								CHANNELS 3 Xrotation Yrotation Zrotation
								JOINT Head
								{
									OFFSET 0.000000 14.068802 -1.351900
									CHANNELS 3 Xrotation Yrotation Zrotation
									End Site
									{
										OFFSET 0 0 0
									}
								}
							}
						}
						JOINT LeftShoulder_virtual
						{
							OFFSET 0.000000 0.000000 0.000000
							CHANNELS 3 Xrotation Yrotation Zrotation
							JOINT LeftShoulder
							{
								OFFSET 15.263000 10.923401 -0.547700
								CHANNELS 3 Xrotation Yrotation Zrotation
								JOINT LeftArm
								{
									OFFSET 25.438599 -2.830597 -13.032500
									CHANNELS 3 Xrotation Yrotation Zrotation
									JOINT LeftForeArm
									{
										OFFSET 29.960503 0.000000 0.000000
										CHANNELS 3 Xrotation Yrotation Zrotation
										JOINT LeftHand
										{
											OFFSET 27.849251 0.000000 0.000000
											CHANNELS 3 Xrotation Yrotation Zrotation
											End Site
											{
												OFFSET 0 0 0
											}
										}
									}
								}
							}
						}
						JOINT RightShoulder_virtual
						{
							OFFSET 0.000000 0.000000 0.000000
							CHANNELS 3 Xrotation Yrotation Zrotation
							JOINT RightShoulder
							{
								OFFSET -15.263000 10.923401 -0.547700
								CHANNELS 3 Xrotation Yrotation Zrotation
								JOINT RightArm
								{
									OFFSET -25.438599 -2.830597 -13.032500
									CHANNELS 3 Xrotation Yrotation Zrotation
									JOINT RightForeArm
									{
										OFFSET -29.960503 0.000000 0.000000
										CHANNELS 3 Xrotation Yrotation Zrotation
										JOINT RightHand
										{
											OFFSET -27.849251 0.000000 0.000000
											CHANNELS 3 Xrotation Yrotation Zrotation
											End Site
											{
												OFFSET 0 0 0
											}
										}
									}
								}
							}
						}
					}
				}
			}
		}
	}
}
MOTION
Frames: 4
Frame Time: 0.03333333
1.078739 109.819206 3.525656 0.000000 0.000000 0.000000 -33.671043 -4.692192 4.681566 -79.635552 -1.328851 21.727636 49.059084 16.113943 -14.340208 -6.445072 21.007637 -13.944469 0.000000 0.000000 0.000000 -39.086423 2.249298 -0.646519 -77.163734 3.350913 -14.307253 53.271272 -18.617644 6.030252 -5.673538 -22.584335 5.930800 0.000000 0.000000 0.000000 -21.608825 -9.027231 0.334759 -70.536094 7.457500 10.853940 1.843409 -4.701353 0.982394 -0.157745 -2.013455 0.547864 0.000000 0.000000 0.000000 -0.250741 -2.381825 -0.059279 -2.300335 -0.053207 -0.379957 0.000000 0.000000 0.000000 1.053009 -1.707629 0.949342 0.153607 -2.388109 -6.133017 3.392627 -30.398529 -55.740774 14.730327 -66.542763 4.135365 0.000000 0.000000 0.000000 2.386120 -2.782544 1.337973 1.624080 -2.623614 10.934742 11.023284 29.616694 41.988687 115.173259 82.983424 -110.458632 0.000000 0.000000 0.000000 
1.101341 109.818466 3.482703 0.000000 0.000000 0.000000 -33.595761 -4.683602 4.767638 -79.564464 -1.357777 21.798048 49.085585 16.142729 -14.370414 -6.411765 21.049950 -13.978219 0.000000 0.000000 0.000000 -39.104848 2.338556 -0.697069 -77.169991 3.405302 -14.344466 53.226349 -18.687831 6.086639 -5.683707 -22.681083 5.949104 0.000000 0.000000 0.000000 -21.689676 -9.114281 0.339007 -70.517728 7.686034 11.003991 1.855965 -4.759273 0.983243 -0.146424 -2.015945 0.577815 0.000000 0.000000 0.000000 -0.234862 -2.443646 -0.088396 -2.313268 -0.062855 -0.380943 0.000000 0.000000 0.000000 1.034827 -1.730870 0.937004 0.138343 -2.255998 -6.141400 3.321175 -30.535010 -55.663190 14.858894 -66.784763 4.307651 0.000000 0.000000 0.000000 2.387196 -2.772656 1.341987 1.641690 -2.692803 10.993820 11.030750 29.700907 41.939653 119.589700 82.855099 -114.874520 0.000000 0.000000 0.000000 
1.140292 109.823952 3.404697 0.000000 0.000000 0.000000 -33.465967 -4.658218 4.903417 -79.442839 -1.398376 21.910482 49.135647 16.186532 -14.419028 -6.347078 21.117531 -14.037868 0.000000 0.000000 0.000000 -39.143951 2.488523 -0.782202 -77.187804 3.496859 -14.404213 53.141030 -18.797857 6.180924 -5.701341 -22.838112 5.985388 0.000000 0.000000 0.000000 -21.856190 -9.293873 0.338755 -70.498399 8.115496 11.287442 1.873621 -4.857085 0.984100 -0.121645 -2.019847 0.629246 0.000000 0.000000 0.000000 -0.200630 -2.552424 -0.146760 -2.333427 -0.080225 -0.383793 0.000000 0.000000 0.000000 1.009327 -1.770501 0.910868 0.113683 -2.013873 -6.157645 3.199865 -30.786948 -55.510399 15.107719 -67.249332 4.642677 0.000000 0.000000 0.000000 2.396947 -2.745168 1.348181 1.672435 -2.803641 11.098979 10.994935 29.843634 41.864859 127.066462 82.539674 -122.349588 0.000000 0.000000 0.000000 
1.184454 109.846252 3.303827 0.000000 0.000000 0.000000 -33.314903 -4.607598 5.032194 -79.303332 -1.425335 22.020386 49.206086 16.223685 -14.468268 -6.252673 21.184103 -14.111892 0.000000 0.000000 0.000000 -39.203920 2.653838 -0.875639 -77.222365 3.597539 -14.463130 53.021474 -18.901597 6.285033 -5.723433 -22.999759 6.039574 0.000000 0.000000 0.000000 -22.109857 -9.570916 0.321663 -70.503883 8.700271 11.677627 1.888595 -4.965275 0.982551 -0.079920 -2.023003 0.687976 0.000000 0.000000 0.000000 -0.143276 -2.683097 -0.234105 -2.351264 -0.101796 -0.389843 0.000000 0.000000 0.000000 0.994279 -1.814919 0.869121 0.089835 -1.699355 -6.182525 3.070144 -31.117386 -55.284832 15.465128 -67.895755 5.125508 0.000000 0.000000 0.000000 2.428092 -2.687875 1.353656 1.708971 -2.912013 11.230493 10.831033 30.000868 41.802885 135.541908 82.013770 -130.823599 0.000000 0.000000 0.000000 
